<svg xmlns="http://www.w3.org/2000/svg" viewBox="0 0 512 512" width="512" height="512">
  <defs>
    <linearGradient id="bg" x1="120" y1="70" x2="420" y2="450" gradientUnits="userSpaceOnUse">
      <stop offset="0" stop-color="#4f86ff"/><stop offset=".55" stop-color="#2f5fe6"/><stop offset="1" stop-color="#1a2fb0"/>
    </linearGradient>
    <radialGradient id="glow" cx="50%" cy="34%" r="62%">
      <stop offset="0" stop-color="#7ea6ff" stop-opacity=".55"/><stop offset="1" stop-color="#7ea6ff" stop-opacity="0"/>
    </radialGradient>
  </defs>
  <rect x="0" y="0" width="512" height="512" rx="118" fill="url(#bg)"/>
  <rect x="0" y="0" width="512" height="512" rx="118" fill="url(#glow)"/>
  <!-- motif authored in 64-space, scaled x8 -->
  <g transform="scale(8)" fill="#fff" stroke="#fff">
    <!-- antennas -->
    <line x1="32" y1="25" x2="22.5" y2="12.5" stroke-width="2.6" stroke-linecap="round"/>
    <line x1="32" y1="25" x2="41.5" y2="12.5" stroke-width="2.6" stroke-linecap="round"/>
    <circle cx="22.5" cy="12.5" r="2.7" stroke="none"/>
    <circle cx="41.5" cy="12.5" r="2.7" stroke="none"/>
    <circle cx="32" cy="25" r="3.2" stroke="none"/>
    <!-- TV screen -->
    <rect x="13" y="27" width="38" height="25.5" rx="6" fill="#fff" fill-opacity=".12" stroke-width="2.8"/>
    <!-- scales: beam + post + base -->
    <circle cx="32" cy="32.4" r="1.9" stroke="none"/>
    <line x1="24" y1="34" x2="40" y2="34" stroke-width="2.4" stroke-linecap="round"/>
    <line x1="32" y1="33.4" x2="32" y2="45.2" stroke-width="2.4" stroke-linecap="round"/>
    <path d="M27.6 47.6 L36.4 47.6 L34.8 45 L29.2 45 Z" stroke="none"/>
    <!-- left pan -->
    <line x1="24" y1="34" x2="21" y2="38.2" stroke-width="1.5" stroke-linecap="round"/>
    <line x1="24" y1="34" x2="27" y2="38.2" stroke-width="1.5" stroke-linecap="round"/>
    <path d="M20.4 38.2 L27.6 38.2 L26 41.8 L22 41.8 Z" stroke="none"/>
    <!-- right pan -->
    <line x1="40" y1="34" x2="37" y2="38.2" stroke-width="1.5" stroke-linecap="round"/>
    <line x1="40" y1="34" x2="43" y2="38.2" stroke-width="1.5" stroke-linecap="round"/>
    <path d="M36.4 38.2 L43.6 38.2 L42 41.8 L38 41.8 Z" stroke="none"/>
  </g>
</svg>
